<?xml version="1.0" standalone="no"?>
<!DOCTYPE svg PUBLIC "-//W3C//DTD SVG 20010904//EN"
 "http://www.w3.org/TR/2001/REC-SVG-20010904/DTD/svg10.dtd">
<svg version="1.0" xmlns="http://www.w3.org/2000/svg"
 width="52.000000pt" height="45.000000pt" viewBox="0 0 52.000000 45.000000"
 preserveAspectRatio="xMidYMid meet">
<metadata>
Created by potrace 1.16, written by Peter Selinger 2001-2019
</metadata>
<g transform="translate(0.000000,45.000000) scale(0.100000,-0.100000)"
fill="#000000" stroke="none">
<path d="M30 435 c0 -10 10 -15 29 -15 31 0 43 -11 48 -45 10 -71 39 -200 47
-214 5 -7 1 -26 -10 -46 -16 -30 -16 -37 -4 -59 10 -19 21 -26 45 -26 40 0 55
16 55 57 0 33 0 33 50 33 49 0 49 0 40 -25 -14 -38 3 -72 40 -80 19 -4 36 -2
45 5 17 14 21 90 5 90 -5 0 -10 9 -10 19 0 17 -10 20 -87 26 -101 7 -166 23
-98 24 22 0 73 -4 113 -8 40 -4 76 -4 80 -1 4 3 27 37 50 77 50 84 58 143 20
143 -13 0 -88 7 -168 15 -80 8 -148 15 -152 15 -12 0 -9 -28 4 -36 6 -4 74
-13 150 -20 77 -6 142 -14 144 -17 3 -3 -10 -35 -28 -71 l-33 -65 -50 1 c-27
0 -79 3 -115 7 l-65 6 -8 45 c-4 25 -10 54 -11 65 -4 20 -14 65 -23 98 -6 23
-103 25 -103 2z"/>
</g>
</svg>
