<?xml version="1.0" standalone="no"?>
<!DOCTYPE svg PUBLIC "-//W3C//DTD SVG 20010904//EN"
 "http://www.w3.org/TR/2001/REC-SVG-20010904/DTD/svg10.dtd">
<svg version="1.0" xmlns="http://www.w3.org/2000/svg"
 width="3306.000000pt" height="946.000000pt" viewBox="0 0 3306.000000 946.000000"
 preserveAspectRatio="xMidYMid meet">
<metadata>
Created by potrace 1.16, written by Peter Selinger 2001-2019
</metadata>
<g transform="translate(0.000000,946.000000) scale(0.100000,-0.100000)"
fill="#000000" stroke="none">
<path d="M550 4860 l0 -3980 1410 0 1410 0 0 40 0 40 -1370 0 -1370 0 0 3900
0 3900 15895 0 15895 0 0 -3900 0 -3900 -1505 0 -1505 0 0 -40 0 -40 1545 0
1545 0 0 3980 0 3980 -15975 0 -15975 0 0 -3980z"/>
<path d="M3629 6453 c-12 -13 -14 -257 -14 -1502 0 -1404 1 -1487 17 -1503 17
-17 75 -18 959 -18 629 0 947 3 960 10 17 10 19 22 19 110 0 88 -2 100 -19
110 -13 7 -292 10 -833 10 -620 0 -817 3 -826 12 -9 9 -12 329 -12 1381 0 924
-3 1375 -10 1388 -10 17 -22 19 -119 19 -89 0 -111 -3 -122 -17z"/>
<path d="M9292 6458 c-14 -14 -16 -1594 -2 -1943 9 -227 22 -295 91 -460 81
-195 256 -398 434 -502 186 -110 335 -152 565 -160 330 -11 571 58 800 228
213 158 345 370 413 664 20 88 21 117 24 1117 3 720 1 1034 -7 1048 -10 18
-21 20 -115 20 -91 0 -106 -2 -114 -18 -6 -12 -11 -386 -14 -1003 -3 -701 -7
-1007 -16 -1064 -64 -426 -420 -741 -861 -762 -267 -13 -506 81 -695 271 -96
97 -136 157 -190 283 -71 166 -68 115 -74 1251 -5 894 -8 1024 -21 1032 -22
14 -203 13 -218 -2z"/>
<path d="M15700 6451 c-7 -13 -10 -500 -10 -1505 0 -1336 2 -1486 16 -1500 20
-20 213 -23 232 -4 9 9 12 311 12 1299 0 708 4 1290 8 1293 14 9 55 -42 134
-164 41 -63 191 -291 334 -507 142 -216 348 -528 457 -693 171 -260 203 -304
234 -316 55 -24 83 -6 144 90 45 69 612 939 946 1449 56 87 108 155 113 152 7
-4 10 -445 10 -1291 0 -867 3 -1292 10 -1305 10 -17 22 -19 109 -19 79 0 103
3 120 18 l21 17 -2 1493 c-3 1314 -5 1494 -18 1502 -21 14 -254 12 -284 -1
-26 -12 -120 -153 -521 -774 -408 -634 -611 -940 -623 -940 -12 0 -310 445
-695 1040 -317 490 -434 663 -456 675 -11 5 -78 10 -150 10 -119 0 -131 -2
-141 -19z"/>
<path d="M22702 6458 c-9 -9 -12 -358 -12 -1510 0 -1470 0 -1497 19 -1508 11
-5 60 -10 110 -10 84 0 92 2 106 23 13 21 15 189 13 1511 -3 1309 -5 1488 -18
1496 -22 14 -203 13 -218 -2z"/>
<path d="M27062 6458 c-9 -9 -12 -358 -12 -1510 0 -1470 0 -1497 19 -1508 28
-14 204 -13 219 2 9 9 12 291 12 1207 0 778 4 1201 10 1211 13 20 8 26 395
-450 176 -216 398 -488 493 -604 95 -116 304 -373 465 -571 623 -770 654 -805
705 -805 18 0 42 5 53 10 19 11 19 38 19 1509 0 1269 -2 1500 -14 1510 -9 8
-51 11 -122 9 l-109 -3 -5 -1212 c-3 -666 -8 -1214 -12 -1218 -14 -14 -41 16
-230 250 -522 647 -629 779 -718 885 -53 63 -202 246 -330 405 -424 526 -712
875 -730 885 -26 14 -94 12 -108 -2z"/>
<path d="M5457 1406 c-51 -14 -102 -46 -127 -80 -42 -57 -51 -146 -21 -211 35
-77 83 -104 227 -130 140 -25 190 -42 213 -71 28 -36 26 -60 -7 -94 -61 -60
-226 -50 -292 19 -19 20 -40 44 -45 54 -9 18 -13 17 -73 -9 -34 -14 -62 -31
-62 -36 0 -24 35 -80 70 -112 63 -57 137 -79 265 -80 217 -1 309 64 309 219
-1 80 -16 117 -68 162 -42 38 -96 56 -249 84 -132 24 -160 39 -160 88 0 54 31
75 117 79 95 5 135 -8 185 -64 23 -24 44 -44 46 -44 3 0 30 16 60 37 l55 36
-16 26 c-43 67 -96 105 -177 127 -64 17 -186 17 -250 0z"/>
<path d="M14087 1410 c-98 -25 -182 -95 -226 -189 -24 -52 -26 -66 -26 -186 0
-122 2 -134 29 -193 36 -78 106 -143 179 -169 63 -21 214 -24 270 -4 21 7 51
24 68 38 34 29 33 29 46 -12 8 -26 15 -30 51 -33 l42 -3 0 205 0 206 -150 0
-150 0 0 -60 0 -60 80 0 80 0 0 -27 c0 -38 -33 -89 -72 -113 -77 -46 -203 -34
-263 26 -90 89 -86 315 7 401 51 48 140 66 217 43 39 -11 86 -52 107 -93 l15
-27 59 32 c33 18 60 39 60 46 0 21 -50 90 -84 116 -58 44 -106 58 -206 62 -52
2 -112 -1 -133 -6z"/>
<path d="M22087 1410 c-269 -68 -362 -459 -155 -656 56 -54 109 -80 192 -95
178 -31 333 44 402 193 27 58 29 72 29 183 0 109 -2 125 -27 177 -61 131 -168
200 -318 204 -47 2 -102 -1 -123 -6z m226 -157 c142 -99 122 -404 -31 -454
-44 -15 -137 -15 -173 -1 -42 17 -96 69 -112 110 -38 95 -29 214 21 291 60 93
203 119 295 54z"/>
<path d="M6340 1040 l0 -370 70 0 70 0 0 115 0 115 36 40 c20 22 40 40 44 40
4 0 53 -70 110 -155 l103 -155 89 0 88 0 -140 210 c-77 115 -140 213 -140 217
0 5 56 73 125 153 69 80 125 148 125 152 0 5 -37 8 -82 8 l-83 0 -137 -166
-138 -166 0 166 0 166 -70 0 -70 0 0 -370z"/>
<path d="M7360 1040 l0 -370 75 0 75 0 0 370 0 370 -75 0 -75 0 0 -370z"/>
<path d="M7990 1040 l0 -370 65 0 65 0 2 259 3 260 160 -259 160 -260 73 0 72
0 0 370 0 370 -65 0 -65 0 -2 -240 -3 -240 -150 237 -150 238 -83 3 -82 3 0
-371z"/>
<path d="M9590 1040 l0 -370 65 0 65 0 2 260 3 259 91 -257 92 -257 52 0 53 0
91 250 91 250 3 -253 2 -252 70 0 70 0 0 370 0 371 -96 -3 -96 -3 -91 -244
-90 -243 -48 133 c-27 74 -67 185 -90 247 l-41 112 -99 0 -99 0 0 -370z"/>
<path d="M10870 1048 c-69 -198 -126 -365 -128 -370 -2 -4 28 -8 67 -8 l70 0
28 85 27 86 130 -3 129 -3 27 -80 27 -80 71 -3 c40 -2 72 1 72 5 0 4 -54 171
-121 370 l-121 363 -76 0 -77 0 -125 -362z m240 46 c22 -65 40 -122 40 -126 0
-4 -39 -8 -86 -8 -65 0 -85 3 -81 13 2 6 22 65 43 129 21 65 40 116 41 114 2
-2 21 -56 43 -122z"/>
<path d="M11800 1040 l0 -370 65 0 65 0 0 262 0 263 163 -262 162 -263 73 0
72 0 0 370 0 370 -65 0 -65 0 -2 -241 -3 -241 -151 238 -150 239 -82 3 -82 3
0 -371z"/>
<path d="M13055 1398 c-3 -7 -56 -161 -119 -343 -63 -181 -119 -343 -125 -358
l-11 -28 72 3 71 3 27 80 27 80 129 3 130 3 27 -86 28 -85 74 0 73 0 -122 368
-123 367 -76 3 c-56 2 -79 -1 -82 -10z m118 -301 c20 -62 37 -118 37 -125 0
-8 -26 -12 -86 -12 -65 0 -84 3 -81 13 3 6 23 63 43 125 21 61 41 112 44 112
3 0 22 -51 43 -113z"/>
<path d="M14970 1040 l0 -370 295 0 295 0 0 65 0 65 -225 0 -225 0 0 90 0 90
185 0 185 0 0 65 0 65 -185 0 -185 0 0 85 0 85 220 0 220 0 0 65 0 65 -290 0
-290 0 0 -370z"/>
<path d="M16000 1040 l0 -370 65 0 65 0 2 255 3 256 90 -253 90 -253 51 -3 52
-3 45 123 c24 68 66 184 93 258 l49 135 3 -257 2 -258 70 0 70 0 0 370 0 370
-97 0 -98 0 -79 -218 c-44 -119 -85 -230 -91 -245 -11 -26 -18 -11 -100 218
l-89 245 -98 0 -98 0 0 -370z"/>
<path d="M17220 1040 l0 -370 295 0 295 0 0 65 0 65 -225 0 -225 0 0 90 0 90
185 0 185 0 0 65 0 65 -185 0 -185 0 0 85 0 85 215 0 215 0 0 65 0 65 -285 0
-285 0 0 -370z"/>
<path d="M18250 1040 l0 -370 65 0 65 0 2 257 3 258 160 -258 160 -257 72 0
73 0 0 370 0 370 -65 0 -65 0 -2 -242 -3 -242 -151 239 -151 240 -82 3 -81 3
0 -371z"/>
<path d="M19270 1345 l0 -65 125 0 125 0 0 -305 0 -305 75 0 75 0 0 305 0 305
125 0 125 0 0 65 0 65 -325 0 -325 0 0 -65z"/>
<path d="M20870 1040 l0 -370 75 0 75 0 0 155 0 155 170 0 170 0 0 65 0 65
-170 0 -170 0 0 85 0 85 200 0 200 0 0 65 0 65 -275 0 -275 0 0 -370z"/>
<path d="M23000 1041 l0 -371 70 0 70 0 0 151 0 151 108 -4 c155 -6 167 -16
188 -175 8 -58 16 -109 19 -114 4 -5 42 -9 86 -9 77 0 79 1 69 20 -6 12 -17
67 -25 124 -14 112 -30 153 -70 184 -24 19 -25 21 -6 27 68 21 112 128 91 220
-15 67 -44 103 -109 134 -54 25 -63 26 -273 29 l-218 4 0 -371z m392 229 c43
-12 68 -42 68 -83 0 -76 -45 -97 -205 -97 l-115 0 0 95 0 95 108 0 c59 0 124
-5 144 -10z"/>
<path d="M24590 1040 l0 -370 65 0 65 0 2 251 3 252 89 -252 90 -251 51 0 50
0 95 260 95 260 3 -260 2 -260 65 0 65 0 0 370 0 370 -93 0 -94 0 -88 -241
c-64 -173 -92 -238 -98 -227 -5 8 -46 115 -91 239 l-81 224 -98 3 -97 3 0
-371z"/>
<path d="M25800 1040 l0 -370 300 0 300 0 0 65 0 65 -225 0 -225 0 0 90 0 90
180 0 180 0 0 65 0 65 -180 0 -180 0 0 85 0 85 215 0 215 0 0 65 0 65 -290 0
-290 0 0 -370z"/>
<path d="M26830 1040 l0 -370 65 0 65 0 0 267 0 268 166 -268 166 -267 74 0
74 0 0 370 0 370 -65 0 -65 0 -2 -244 -3 -245 -154 245 -154 244 -83 0 -84 0
0 -370z"/>
</g>
</svg>
